<svg width="27.000000" height="34.000000" viewBox="0 0 27 34" fill="none" xmlns="http://www.w3.org/2000/svg" xmlns:xlink="http://www.w3.org/1999/xlink">
	<desc>
			Created with Pixso.
	</desc>
	<defs/>
	<path id="Vector" d="M16.94 22.42C16.82 21.13 16.87 20.23 16.87 19.05C17.45 18.74 18.5 16.79 18.68 15.14C19.14 15.1 19.86 14.65 20.07 12.88C20.19 11.94 19.73 11.4 19.45 11.23C20.2 8.99 21.75 2.03 16.58 1.32C16.05 0.38 14.69 -0.09 12.92 -0.09C5.84 0.04 4.98 5.26 6.53 11.23C6.26 11.4 5.8 11.94 5.92 12.88C6.13 14.65 6.85 15.1 7.31 15.14C7.49 16.79 8.58 18.74 9.16 19.05C9.16 20.23 9.21 21.13 9.09 22.42C8.08 25.13 2.9 25.34 -0.09 27.96C3.04 31.1 8.1 33.35 13.44 33.35C18.79 33.35 25.07 29.13 26.12 27.98C23.15 25.34 17.95 25.14 16.94 22.42Z" fill="#000000" fill-opacity="1.000000" fill-rule="nonzero"/>
</svg>
